<svg width="21" height="19" viewBox="0 0 21 19" fill="none" xmlns="http://www.w3.org/2000/svg">
<path d="M18.6006 0.0751953C18.3294 0.111068 18.0737 0.223488 17.8643 0.399414C13.3248 4.20648 8.55789 4.5449 8.27441 4.56152H4.53809C3.40498 4.55179 2.31089 4.97606 1.48047 5.74707C0.6502 6.51807 0.146492 7.5774 0.0722656 8.70801C-0.00186539 9.83878 0.359423 10.9552 1.08203 11.8281C1.80477 12.7011 2.83414 13.2651 3.95898 13.4033L4.00098 13.4082L4.01172 13.4492L5.11523 17.6074V17.6084C5.17234 17.8308 5.28173 18.0366 5.43457 18.208C5.58742 18.3794 5.77968 18.5117 5.99414 18.5938C6.20852 18.6757 6.43987 18.7052 6.66797 18.6797C6.89607 18.6541 7.11475 18.5737 7.30566 18.4463L8.33691 17.7598C8.53382 17.6284 8.69505 17.45 8.80664 17.2412C8.91824 17.0323 8.97686 16.7984 8.97656 16.5615V13.5156L9.04883 13.5264C10.6224 13.7656 14.3119 14.62 17.8643 17.5996C18.0737 17.7755 18.3294 17.888 18.6006 17.9238C18.8719 17.9596 19.1484 17.9173 19.3965 17.8018C19.6444 17.6862 19.8539 17.5021 20.001 17.2715C20.148 17.0408 20.2265 16.7726 20.2266 16.499V1.49902L20.2119 1.29492C20.1829 1.09348 20.1113 0.899449 20.001 0.726562C19.8538 0.495982 19.6435 0.312719 19.3955 0.197266C19.1475 0.0818104 18.8718 0.0393456 18.6006 0.0751953ZM7.60156 16.5947L7.57324 16.6133L6.44531 17.3652V17.249L5.4541 13.5146L5.43262 13.4365H7.60156V16.5947ZM7.60156 12.0615H4.53906C3.72688 12.0615 2.94835 11.7383 2.37402 11.1641C1.79973 10.5898 1.47661 9.81119 1.47656 8.99902C1.47656 8.1868 1.79969 7.40734 2.37402 6.83301C2.94831 6.25893 3.72703 5.93652 4.53906 5.93652H7.60156V12.0615Z" fill="#F2F2F2" stroke="#F2F2F2" stroke-width="0.125"/>
</svg>
