<svg width="20" height="20" viewBox="0 0 20 20" fill="none" xmlns="http://www.w3.org/2000/svg">
<g clip-path="url(#clip0_441_314)">
<path d="M18.125 9.99996C18.1253 11.4027 17.7624 12.7817 17.0717 14.0026C16.381 15.2235 15.3859 16.2448 14.1834 16.967C12.9808 17.6893 11.6118 18.0879 10.2095 18.124C8.80719 18.1602 7.41942 17.8327 6.18125 17.1734L3.52109 18.0601C3.30085 18.1336 3.0645 18.1442 2.83854 18.0909C2.61257 18.0376 2.40593 17.9224 2.24176 17.7582C2.07759 17.594 1.96239 17.3874 1.90906 17.1614C1.85573 16.9355 1.86639 16.6991 1.93984 16.4789L2.82656 13.8187C2.24699 12.7291 1.92328 11.5217 1.88 10.2882C1.83672 9.05477 2.075 7.82767 2.57677 6.70007C3.07854 5.57246 3.8306 4.57398 4.77587 3.78043C5.72114 2.98687 6.83478 2.41909 8.03224 2.12018C9.22971 1.82127 10.4795 1.79909 11.6868 2.05533C12.8942 2.31157 14.0272 2.83948 15.0001 3.599C15.9729 4.35852 16.7599 5.32969 17.3014 6.43879C17.8428 7.54788 18.1245 8.76576 18.125 9.99996Z" fill="#F2F2F2"/>
</g>
<defs>
<clipPath id="clip0_441_314">
<rect width="20" height="20" fill="white"/>
</clipPath>
</defs>
</svg>
