<svg width="20" height="20" viewBox="0 0 20 20" fill="none" xmlns="http://www.w3.org/2000/svg">
<g clip-path="url(#clip0_148_6031)">
<path d="M12.5 10L8.75 7.5V12.5L12.5 10Z" stroke="#0B4112" stroke-width="1.2" stroke-linecap="round" stroke-linejoin="round"/>
<path d="M1.875 9.99995C1.875 12.3367 2.11484 13.707 2.29766 14.4117C2.346 14.6033 2.43911 14.7808 2.56935 14.9295C2.69959 15.0782 2.86325 15.1939 3.04688 15.2671C5.66563 16.2773 10 16.25 10 16.25C10 16.25 14.3344 16.2773 16.9531 15.2671C17.1373 15.1944 17.3016 15.0788 17.4324 14.9301C17.5632 14.7814 17.6568 14.6037 17.7055 14.4117C17.8883 13.7085 18.1281 12.3367 18.1281 9.99995C18.1281 7.66323 17.8883 6.29292 17.7055 5.58823C17.6574 5.39552 17.564 5.21704 17.4332 5.06759C17.3024 4.91814 17.1378 4.80202 16.9531 4.72886C14.3344 3.72261 10 3.74995 10 3.74995C10 3.74995 5.66563 3.72261 3.04688 4.73276C2.86221 4.80593 2.69765 4.92205 2.56681 5.0715C2.43597 5.22095 2.34264 5.39942 2.29453 5.59214C2.11484 6.29214 1.875 7.66323 1.875 9.99995Z" stroke="#0B4112" stroke-width="1.2" stroke-linecap="round" stroke-linejoin="round"/>
</g>
<defs>
<clipPath id="clip0_148_6031">
<rect width="20" height="20" fill="white"/>
</clipPath>
</defs>
</svg>
